<svg viewBox="0 0 35 36" xmlns="http://www.w3.org/2000/svg">
<path d="M14.6973 34.1328C14.6973 34.888 14.0852 35.5 13.3301 35.5H7.31445C4.2989 35.5 1.8457 33.0468 1.8457 30.0312V5.96875C1.8457 2.95319 4.2989 0.5 7.31445 0.5H24.1234C27.1387 0.5 29.5921 2.95319 29.5921 5.96875V19.0254C29.5921 19.7805 28.9798 20.3926 28.2249 20.3926C27.4698 20.3926 26.8578 19.7805 26.8578 19.0254V5.96875C26.8578 4.46111 25.631 3.23437 24.1234 3.23437H7.31445C5.80681 3.23437 4.58008 4.46111 4.58008 5.96875V30.0312C4.58008 31.5389 5.80681 32.7656 7.31445 32.7656H13.3301C14.0852 32.7656 14.6973 33.3777 14.6973 34.1328ZM22.7562 8.70312H8.67416C7.91901 8.70312 7.30698 9.31515 7.30698 10.0703C7.30698 10.8255 7.91901 11.4375 8.67416 11.4375H22.7562C23.5111 11.4375 24.1234 10.8255 24.1234 10.0703C24.1234 9.31515 23.5111 8.70312 22.7562 8.70312ZM24.1234 15.5391C24.1234 14.7839 23.5111 14.1719 22.7562 14.1719H8.67416C7.91901 14.1719 7.30698 14.7839 7.30698 15.5391C7.30698 16.2942 7.91901 16.9062 8.67416 16.9062H22.7562C23.5111 16.9062 24.1234 16.2942 24.1234 15.5391ZM8.67416 19.6406C7.91901 19.6406 7.30698 20.2527 7.30698 21.0078C7.30698 21.763 7.91901 22.375 8.67416 22.375H15.8594C16.6145 22.375 17.2266 21.763 17.2266 21.0078C17.2266 20.2527 16.6145 19.6406 15.8594 19.6406H8.67416Z" />
<path d="M27.3038 24.2782L24.4268 27.1553L21.5497 24.2782C21.4088 24.1371 21.2416 24.0251 21.0574 23.9487C20.8733 23.8723 20.6758 23.833 20.4765 23.833C20.2771 23.833 20.0797 23.8723 19.8955 23.9487C19.7114 24.0251 19.5441 24.1371 19.4033 24.2782C18.8096 24.8719 18.8096 25.831 19.4033 26.4247L22.2804 29.3017L19.4033 32.1788C18.8096 32.7725 18.8096 33.7316 19.4033 34.3252C19.997 34.9189 20.956 34.9189 21.5497 34.3252L24.4268 31.4482L27.3038 34.3252C27.8975 34.9189 28.8566 34.9189 29.4502 34.3252C30.0439 33.7316 30.0439 32.7725 29.4502 32.1788L26.5732 29.3017L29.4502 26.4247C30.0439 25.831 30.0439 24.8719 29.4502 24.2782C28.8566 23.6998 27.8823 23.6998 27.3038 24.2782Z"/>
</svg>
