<svg viewBox="0 0 25 24" stroke="none" xmlns="http://www.w3.org/2000/svg">
<path d="M10.1982 23.0625C10.1982 23.5803 9.77856 24 9.26074 24H5.13574C3.06793 24 1.38574 22.3178 1.38574 20.25V3.75C1.38574 1.68219 3.06793 0 5.13574 0H16.6619C18.7295 0 20.4119 1.68219 20.4119 3.75V12.7031C20.4119 13.2209 19.992 13.6406 19.4744 13.6406C18.9565 13.6406 18.5369 13.2209 18.5369 12.7031V3.75C18.5369 2.71619 17.6957 1.875 16.6619 1.875H5.13574C4.10193 1.875 3.26074 2.71619 3.26074 3.75V20.25C3.26074 21.2838 4.10193 22.125 5.13574 22.125H9.26074C9.77856 22.125 10.1982 22.5447 10.1982 23.0625ZM15.7244 5.625H6.06812C5.55029 5.625 5.13062 6.04468 5.13062 6.5625C5.13062 7.08032 5.55029 7.5 6.06812 7.5H15.7244C16.242 7.5 16.6619 7.08032 16.6619 6.5625C16.6619 6.04468 16.242 5.625 15.7244 5.625ZM16.6619 10.3125C16.6619 9.79468 16.242 9.375 15.7244 9.375H6.06812C5.55029 9.375 5.13062 9.79468 5.13062 10.3125C5.13062 10.8303 5.55029 11.25 6.06812 11.25H15.7244C16.242 11.25 16.6619 10.8303 16.6619 10.3125ZM6.06812 13.125C5.55029 13.125 5.13062 13.5447 5.13062 14.0625C5.13062 14.5803 5.55029 15 6.06812 15H10.9951C11.5129 15 11.9326 14.5803 11.9326 14.0625C11.9326 13.5447 11.5129 13.125 10.9951 13.125H6.06812ZM22.7309 19.992C22.6979 20.0391 22.585 20.1989 22.5148 20.2874C22.2008 20.6823 21.4658 21.6068 20.4432 22.4229C19.132 23.4694 17.7827 24 16.4326 24C15.0826 24 13.7333 23.4694 12.4221 22.4229C11.3994 21.6068 10.6644 20.6821 10.3506 20.2874C10.2803 20.1989 10.1673 20.0389 10.1343 19.992C9.9071 19.6686 9.9071 19.2374 10.1343 18.9141C10.1673 18.8672 10.2803 18.7072 10.3506 18.6187C10.6644 18.2239 11.3994 17.2994 12.4221 16.4833C13.7333 15.4369 15.0826 14.9062 16.4326 14.9062C17.7827 14.9062 19.132 15.4369 20.4432 16.4833C21.4658 17.2994 22.2008 18.2241 22.5146 18.6189C22.585 18.7073 22.6979 18.8674 22.7309 18.9142C22.9581 19.2376 22.9581 19.6686 22.7309 19.992ZM20.7753 19.4531C19.2847 17.6797 17.8251 16.7812 16.4326 16.7812C15.0403 16.7812 13.5806 17.6796 12.0899 19.4531C13.5806 21.2265 15.0401 22.125 16.4326 22.125C17.8251 22.125 19.2847 21.2267 20.7753 19.4531ZM16.4795 17.6719C15.4957 17.6719 14.6982 18.4693 14.6982 19.4531C14.6982 20.437 15.4957 21.2344 16.4795 21.2344C17.4633 21.2344 18.2607 20.437 18.2607 19.4531C18.2607 18.4693 17.4633 17.6719 16.4795 17.6719Z" />
</svg>
