<svg viewBox="0 0 91 72" fill="none" xmlns="http://www.w3.org/2000/svg">
<g clip-path="url(#clip0)">
<path d="M63.1715 54.9878L58.3544 59.4225L62.1827 52.999C59.1666 47.5296 54.2338 42.8027 54.2338 42.8027C54.2338 42.8027 44 52.6074 44 60.3146C44 68.0217 48.5818 70.7128 54.2338 70.7128C59.8857 70.7128 64.4675 68.0217 64.4675 60.3146C64.4675 58.5991 63.9598 56.7799 63.1715 54.9878Z" fill="#F2F2F2"/>
<path d="M57.1153 59.6622V60.0421C57.0927 64.4579 56.348 67.9033 54.8867 70.3294C54.866 70.3651 54.8434 70.399 54.8227 70.4347L54.6591 70.335L54.503 70.2372C56.1242 67.6175 56.6978 63.9144 56.7185 60.0628C56.7204 59.9386 56.7222 59.8126 56.7204 59.6866C56.7147 58.0561 56.615 56.4067 56.4552 54.8044C56.4439 54.6803 56.4307 54.5543 56.4176 54.4283C56.1956 52.3144 55.8759 50.2945 55.5487 48.5398C55.5261 48.4157 55.5017 48.2916 55.4772 48.1694C54.9111 45.2017 54.3338 43.052 54.2021 42.5762C54.1871 42.5179 54.1777 42.486 54.1758 42.4784L54.3544 42.4277L54.3563 42.4258L54.5369 42.375C54.5388 42.3825 54.5707 42.4897 54.6234 42.6891C54.8246 43.4338 55.3475 45.4556 55.8609 48.1224C55.8834 48.2427 55.9079 48.3668 55.9305 48.491C56.1975 49.9146 56.4589 51.5057 56.6658 53.1757C56.7185 53.5951 56.7655 54.0089 56.8069 54.417C56.8219 54.543 56.8351 54.669 56.8464 54.7931C57.0194 56.5252 57.109 58.1482 57.1153 59.6622Z" fill="white"/>
<path d="M55.8609 48.1222C55.7349 48.1391 55.607 48.156 55.4772 48.1692C55.1248 48.2055 54.7708 48.2237 54.4165 48.2237C52.9067 48.2257 51.4157 47.889 50.0533 47.2383C49.9743 47.338 49.8953 47.4376 49.8145 47.5392C51.2476 48.2387 52.8217 48.6016 54.4165 48.5999C54.7947 48.5998 55.1726 48.5797 55.5487 48.5397C55.6766 48.5265 55.8045 48.5096 55.9305 48.4908C56.9706 48.3416 57.982 48.0353 58.9302 47.5824C58.8493 47.479 58.7703 47.3774 58.6932 47.2778C57.7958 47.6972 56.8414 47.9817 55.8609 48.1222Z" fill="white"/>
<path d="M56.8073 54.4169C56.6775 54.4244 56.5477 54.4282 56.418 54.4282C56.3785 54.4301 56.3371 54.4301 56.2976 54.4301C54.6616 54.4301 53.0499 54.0345 51.5999 53.2771C50.1498 52.5197 48.9044 51.4228 47.9699 50.0801C47.8947 50.191 47.8194 50.302 47.7461 50.4148C48.7202 51.7735 50.0039 52.8805 51.4911 53.6441C52.9782 54.4078 54.6259 54.8062 56.2976 54.8062C56.3503 54.8062 56.4029 54.8062 56.4556 54.8044C56.5872 54.8025 56.717 54.7987 56.8468 54.7931C58.8548 54.6902 60.7907 54.0112 62.423 52.8372C62.3628 52.7262 62.3027 52.6152 62.2406 52.5043C60.6542 53.6569 58.7659 54.3216 56.8073 54.4169Z" fill="white"/>
<path d="M57.1155 59.6627C56.9838 59.674 56.8522 59.6815 56.7205 59.6872C56.5795 59.6928 56.4384 59.6966 56.2974 59.6966C54.0991 59.694 51.9607 58.9795 50.2025 57.66C48.4443 56.3405 47.1607 54.487 46.5441 52.377C46.4595 52.5293 46.3748 52.6798 46.2939 52.8321C46.9887 54.9372 48.3293 56.7698 50.125 58.0696C51.9208 59.3695 54.0805 60.0703 56.2974 60.0727C56.4384 60.0727 56.5795 60.0708 56.7186 60.0633C56.8522 60.0595 56.9838 60.052 57.1155 60.0426C59.7746 59.8346 62.2553 58.6238 64.0552 56.6555C64.0157 56.5163 63.9706 56.379 63.9255 56.2399C62.1869 58.2229 59.7442 59.4507 57.1155 59.6627Z" fill="white"/>
<path d="M12.3442 25.0663C19.1618 25.0663 24.6884 19.5396 24.6884 12.7221C24.6884 5.90461 19.1618 0.37793 12.3442 0.37793C5.5267 0.37793 0 5.90461 0 12.7221C0 19.5396 5.5267 25.0663 12.3442 25.0663Z" fill="#E4E4E4"/>
<path d="M12.3445 23.0092C18.0257 23.0092 22.6313 18.4036 22.6313 12.7224C22.6313 7.04111 18.0257 2.43555 12.3445 2.43555C6.6632 2.43555 2.05762 7.04111 2.05762 12.7224C2.05762 18.4036 6.6632 23.0092 12.3445 23.0092Z" fill="#B1DAFB"/>
<path d="M45.1255 25.0663C51.943 25.0663 57.4697 19.5396 57.4697 12.7221C57.4697 5.90461 51.943 0.37793 45.1255 0.37793C38.3079 0.37793 32.7812 5.90461 32.7812 12.7221C32.7812 19.5396 38.3079 25.0663 45.1255 25.0663Z" fill="#E4E4E4"/>
<path d="M45.1247 23.0092C50.806 23.0092 55.4116 18.4036 55.4116 12.7224C55.4116 7.04111 50.806 2.43555 45.1247 2.43555C39.4435 2.43555 34.8379 7.04111 34.8379 12.7224C34.8379 18.4036 39.4435 23.0092 45.1247 23.0092Z" fill="white"/>
<path d="M77.9057 25.0663C84.7233 25.0663 90.25 19.5396 90.25 12.7221C90.25 5.90461 84.7233 0.37793 77.9057 0.37793C71.0882 0.37793 65.5615 5.90461 65.5615 12.7221C65.5615 19.5396 71.0882 25.0663 77.9057 25.0663Z" fill="#E4E4E4"/>
<path d="M77.906 23.0092C83.5873 23.0092 88.1928 18.4036 88.1928 12.7224C88.1928 7.04111 83.5873 2.43555 77.906 2.43555C72.2247 2.43555 67.6191 7.04111 67.6191 12.7224C67.6191 18.4036 72.2247 23.0092 77.906 23.0092Z" fill="white"/>
<path d="M11.4699 16.4422C11.4515 16.4422 11.4331 16.4418 11.4147 16.4409C11.252 16.433 11.0929 16.3901 10.9484 16.315C10.8038 16.2399 10.6772 16.1344 10.5773 16.0058L8.99934 13.977C8.81561 13.7402 8.73329 13.4402 8.77046 13.1428C8.80762 12.8455 8.96123 12.5749 9.19759 12.3907L9.25435 12.3465C9.49115 12.1627 9.79116 12.0804 10.0886 12.1176C10.386 12.1548 10.6565 12.3084 10.8408 12.5447C10.9298 12.6591 11.0423 12.7528 11.1709 12.8196C11.2994 12.8864 11.4409 12.9247 11.5856 12.9317C11.7303 12.9388 11.8748 12.9145 12.0092 12.8605C12.1436 12.8065 12.2648 12.7241 12.3645 12.619L15.5685 9.2368C15.6706 9.12902 15.7929 9.04241 15.9285 8.98191C16.0641 8.92141 16.2103 8.88821 16.3587 8.8842C16.5071 8.88019 16.6548 8.90546 16.7935 8.95855C16.9321 9.01165 17.0589 9.09153 17.1667 9.19365L17.219 9.24321C17.4367 9.44941 17.5635 9.73362 17.5716 10.0333C17.5797 10.333 17.4684 10.6236 17.2622 10.8413L12.2903 16.0892C12.1848 16.2007 12.0576 16.2896 11.9165 16.3503C11.7754 16.411 11.6235 16.4423 11.4699 16.4422Z" fill="white"/>
<path d="M39.707 10.2228H31.582V3.15667C31.5904 2.71915 31.7719 2.30279 32.0867 1.99887C32.4016 1.69495 32.8241 1.52828 33.2617 1.53537H35.9624C38.0272 1.53537 39.707 3.15685 39.707 5.14991V10.2228Z" fill="#2F2E41"/>
<path d="M42.7147 69.3518L41.1724 69.3517L40.4385 63.4023L42.715 63.4025L42.7147 69.3518Z" fill="#FFB6B6"/>
<path d="M43.1083 70.8475L38.1348 70.8473V70.7844C38.1348 70.271 38.3388 69.7787 38.7018 69.4156C39.0648 69.0526 39.5572 68.8487 40.0706 68.8486H40.0707L43.1084 68.8488L43.1083 70.8475Z" fill="#2F2E41"/>
<path d="M28.4989 69.3518L26.9564 69.3517L26.2227 63.4023L28.4992 63.4025L28.4989 69.3518Z" fill="#FFB6B6"/>
<path d="M28.8915 70.8475L23.918 70.8473V70.7844C23.918 70.271 24.122 69.7787 24.485 69.4156C24.848 69.0526 25.3404 68.8487 25.8538 68.8486H25.8539L28.8916 68.8488L28.8915 70.8475Z" fill="#2F2E41"/>
<path d="M30.361 21.5557L29.3545 27.9721L38.9162 28.0979L37.6581 21.9332L30.361 21.5557Z" fill="#FFB6B6"/>
<path d="M29.6318 26.4053L26.5864 34.5142L26.209 68.1191H28.7882L34.953 41.1194L40.6146 67.4143H43.1309L41.3695 37.8483C41.3695 37.8483 41.8889 31.914 39.2307 28.4123L38.5836 26.543L29.6318 26.4053Z" fill="#2F2E41"/>
<path d="M42.6951 32.7275C42.4288 32.655 42.1817 32.5249 41.9712 32.3465C41.7607 32.1682 41.5918 31.9458 41.4765 31.6951C41.3612 31.4444 41.3023 31.1715 41.3039 30.8955C41.3055 30.6196 41.3675 30.3474 41.4857 30.098L37.418 16.8363L40.4099 16.2432L44.1303 29.2425C44.536 29.4688 44.8447 29.836 44.9977 30.2747C45.1507 30.7133 45.1375 31.1929 44.9606 31.6225C44.7837 32.0521 44.4554 32.4018 44.0378 32.6055C43.6202 32.8091 43.1425 32.8526 42.695 32.7275H42.6951Z" fill="#FFB6B6"/>
<path d="M37.3113 25.0997L30.7201 24.9724C30.5317 24.9684 30.3498 24.9028 30.2023 24.7855C30.0548 24.6683 29.9498 24.5059 29.9033 24.3233C29.55 22.9243 28.7726 19.2784 29.1849 15.6471C29.2663 14.9436 29.488 14.2636 29.8368 13.6473C30.1856 13.031 30.6544 12.4909 31.2156 12.059C31.7768 11.6271 32.419 11.3121 33.104 11.1327C33.7891 10.9533 34.5032 10.9131 35.204 11.0146C35.9434 11.1204 36.652 11.3814 37.2833 11.7803C37.9147 12.1793 38.4546 12.7073 38.8676 13.3296C39.2806 13.9519 39.5573 14.6545 39.6797 15.3912C39.802 16.128 39.7672 16.8823 39.5775 17.6047C38.7478 20.7555 38.2792 23.0095 38.1846 24.3045C38.1706 24.4917 38.0957 24.6692 37.9713 24.8099C37.847 24.9505 37.68 25.0466 37.4959 25.0835C37.4411 25.0943 37.3854 25.0998 37.3296 25.0999C37.3235 25.0999 37.3174 25.0998 37.3113 25.0997Z" fill="#E4E4E4"/>
<path d="M17.2904 13.4502C17.33 13.539 17.3625 13.6308 17.3877 13.7247L25.638 16.5283L27.2322 15.1356L29.6485 17.2668L27.0659 20.0065C26.8572 20.2279 26.5824 20.3756 26.2827 20.4274C25.983 20.4793 25.6745 20.4325 25.4037 20.2941L16.5753 15.7847C16.2561 15.9805 15.8848 16.0745 15.5108 16.0541C15.1368 16.0338 14.7779 15.9001 14.4817 15.6708C14.1856 15.4415 13.9663 15.1274 13.853 14.7704C13.7397 14.4135 13.7378 14.0304 13.8475 13.6723C13.9572 13.3142 14.1733 12.998 14.4671 12.7657C14.7609 12.5334 15.1185 12.3961 15.4922 12.372C15.866 12.3479 16.2382 12.4381 16.5595 12.6307C16.8807 12.8234 17.1356 13.1092 17.2904 13.4502V13.4502Z" fill="#FFB6B6"/>
<path d="M25.6553 16.0814C25.6559 15.9678 25.6811 15.8557 25.729 15.7526C25.7769 15.6496 25.8465 15.5582 25.9331 15.4845L28.954 12.9113C29.3362 12.4732 29.8767 12.2046 30.4567 12.1644C31.0367 12.1243 31.609 12.3158 32.0481 12.697C32.4871 13.0782 32.757 13.6179 32.7986 14.1979C32.8402 14.7778 32.6501 15.3506 32.27 15.7905L30.1188 19.1404C30.0574 19.236 29.9761 19.3173 29.8805 19.3786C29.7848 19.44 29.6771 19.48 29.5646 19.4959C29.4521 19.5119 29.3375 19.5034 29.2286 19.4711C29.1196 19.4388 29.019 19.3834 28.9334 19.3086L25.9258 16.6817C25.8402 16.607 25.7717 16.5147 25.725 16.4111C25.6783 16.3075 25.6545 16.1951 25.6553 16.0814Z" fill="#E4E4E4"/>
<path d="M37.2355 20.1948C37.1349 20.1419 37.047 20.068 36.9776 19.978C36.9082 19.888 36.8591 19.7841 36.8335 19.6734L35.9404 15.8069C35.7276 15.2659 35.7382 14.6626 35.9696 14.1293C36.201 13.596 36.6345 13.1762 37.175 12.962C37.7155 12.7479 38.3188 12.7568 38.8528 12.9868C39.3867 13.2169 39.8076 13.6492 40.0232 14.1892L42.0062 17.6413C42.0628 17.7398 42.0975 17.8494 42.1079 17.9625C42.1183 18.0756 42.1043 18.1897 42.0666 18.2969C42.029 18.4041 41.9687 18.502 41.8899 18.5838C41.811 18.6656 41.7155 18.7294 41.6097 18.771L37.8929 20.2311C37.7872 20.2727 37.6737 20.291 37.5603 20.2847C37.4468 20.2785 37.336 20.2478 37.2355 20.1948Z" fill="#E4E4E4"/>
<path d="M40.4329 2.22584C40.7381 1.5114 40.2132 0.602375 39.2606 0.195465C38.3081 -0.211445 37.2884 0.0378518 36.9832 0.75229C36.6781 1.46673 37.2029 2.37576 38.1555 2.78267C39.1081 3.18958 40.1277 2.94028 40.4329 2.22584Z" fill="#2F2E41"/>
<path d="M37.4778 7.5366C38.4969 5.67242 37.8118 3.33509 35.9476 2.31603C34.0834 1.29698 31.7461 1.98209 30.727 3.84628C29.7079 5.71046 30.3931 8.04779 32.2572 9.06684C34.1214 10.0859 36.4588 9.40078 37.4778 7.5366Z" fill="#FFB6B6"/>
<path d="M36.2125 1.28526H31.8124C31.4898 1.28109 31.1776 1.39903 30.9383 1.61542C30.6991 1.83182 30.5504 2.13067 30.5223 2.45205C30.5109 2.62283 30.5347 2.79413 30.5923 2.95534C30.6498 3.11654 30.7398 3.26422 30.8568 3.38921C30.9737 3.5142 31.1151 3.61384 31.2721 3.68197C31.4291 3.75009 31.5984 3.78525 31.7696 3.78525C32.1011 3.78525 32.4191 3.91695 32.6535 4.15137C32.8879 4.38579 33.0196 4.70373 33.0196 5.03525V10.1602H39.8946V4.96733C39.8946 4.4838 39.7994 4.00499 39.6143 3.55827C39.4293 3.11154 39.1581 2.70563 38.8161 2.36372C38.4742 2.0218 38.0683 1.75058 37.6216 1.56554C37.1749 1.3805 36.696 1.28526 36.2125 1.28526Z" fill="#2F2E41"/>
<path d="M57.9033 71.0352H10.2783C10.2452 71.0352 10.2134 71.022 10.1899 70.9985C10.1665 70.9751 10.1533 70.9433 10.1533 70.9102C10.1533 70.877 10.1665 70.8452 10.1899 70.8218C10.2134 70.7983 10.2452 70.7852 10.2783 70.7852H57.9033C57.9365 70.7852 57.9683 70.7983 57.9917 70.8218C58.0151 70.8452 58.0283 70.877 58.0283 70.9102C58.0283 70.9433 58.0151 70.9751 57.9917 70.9985C57.9683 71.022 57.9365 71.0352 57.9033 71.0352Z" fill="#CACACA"/>
</g>
<defs>
<clipPath id="clip0">
<rect width="90.25" height="71.035" fill="white"/>
</clipPath>
</defs>
</svg>
