<svg  viewBox="0 0 21 22" fill="none" xmlns="http://www.w3.org/2000/svg">
<path d="M0.120117 3.85817H20.1201H0.120117ZM12.2621 1.0012H7.97816C7.79038 1.00089 7.60438 1.03758 7.43078 1.10918C7.25719 1.18078 7.0994 1.28589 6.96645 1.4185C6.8335 1.5511 6.72799 1.70861 6.65595 1.88201C6.5839 2.05542 6.54674 2.24132 6.54658 2.42909V3.85817H13.69V2.42909C13.69 2.05007 13.5395 1.68658 13.2714 1.41857C13.0034 1.15056 12.6399 1 12.2609 1L12.2621 1.0012ZM7.97696 15.9994V8.85878V15.9994ZM12.2621 15.9994V8.85878V15.9994ZM16.6579 19.6888C16.6285 20.0463 16.4657 20.3797 16.2018 20.6226C15.9379 20.8656 15.5922 21.0003 15.2335 21H5.00673C4.64809 21 4.30255 20.8652 4.0387 20.6223C3.77484 20.3794 3.61196 20.0462 3.58237 19.6888L2.26267 3.85817H17.9752L16.6567 19.6888H16.6579Z" stroke-width="2"/>
</svg>
