<svg viewBox="0 0 22 30" stroke="none" xmlns="http://www.w3.org/2000/svg">
<path d="M20.9481 6.95848L15.0814 1.0918C14.9714 0.981797 14.8225 0.919922 14.6666 0.919922H2.34663C1.05243 0.919922 0 1.97235 0 3.26661V26.7333C0 28.0275 1.05243 29.0799 2.34669 29.0799H18.7734C20.0676 29.0799 21.12 28.0275 21.12 26.7332V7.37324C21.12 7.21742 21.0581 7.06848 20.9481 6.95848ZM15.2533 2.92286L19.1171 6.78661H16.4266C15.7798 6.78661 15.2533 6.26009 15.2533 5.61329V2.92286ZM19.9467 26.7332C19.9467 27.38 19.4202 27.9066 18.7734 27.9066H2.34669C1.69989 27.9066 1.17337 27.38 1.17337 26.7332V3.26661C1.17337 2.61981 1.69989 2.09329 2.34669 2.09329H14.08V5.61329C14.08 6.9075 15.1324 7.95992 16.4267 7.95992H19.9467V26.7332Z" />
<path d="M13.5512 18.1424C13.0081 17.715 12.4919 17.2756 12.1481 16.9319C11.7013 16.485 11.3031 16.0519 10.9571 15.6394C11.4968 13.9716 11.7334 13.1117 11.7334 12.6533C11.7334 10.706 11.0298 10.3066 9.97339 10.3066C9.17072 10.3066 8.21339 10.7237 8.21339 12.7095C8.21339 13.5849 8.69293 14.6477 9.64339 15.8829C9.41079 16.5927 9.1375 17.4114 8.83043 18.3344C8.68259 18.7772 8.52221 19.1874 8.35259 19.5667C8.21454 19.628 8.08045 19.6905 7.95098 19.7552C7.48464 19.9884 7.04178 20.1981 6.63098 20.3929C4.75752 21.2797 3.52002 21.8664 3.52002 23.0248C3.52002 23.8659 4.43384 24.3866 5.28002 24.3866C6.37083 24.3866 8.01797 22.9297 9.2211 20.4753C10.47 19.9826 12.0227 19.6176 13.2481 19.3891C14.2301 20.1442 15.3147 20.8666 15.84 20.8666C17.2947 20.8666 17.6 20.0256 17.6 19.3203C17.6 17.9333 16.0153 17.9333 15.2533 17.9333C15.0167 17.9333 14.382 18.0032 13.5512 18.1424ZM5.28002 23.2133C4.94485 23.2133 4.71797 23.0552 4.69333 23.0248C4.69333 22.6089 5.93369 22.0211 7.13341 21.4528C7.20958 21.4167 7.28697 21.3806 7.36545 21.3433C6.4843 22.621 5.61288 23.2133 5.28002 23.2133ZM9.3867 12.7095C9.3867 11.48 9.76829 11.48 9.97339 11.48C10.3882 11.48 10.5601 11.48 10.5601 12.6533C10.5601 12.9008 10.3951 13.5196 10.0931 14.4855C9.63244 13.7763 9.3867 13.1684 9.3867 12.7095ZM9.83644 19.015C9.87312 18.913 9.90865 18.8099 9.94303 18.7056C10.1607 18.0525 10.3567 17.4658 10.5314 16.9376C10.7749 17.2057 11.0373 17.4802 11.3186 17.7615C11.4286 17.8715 11.7013 18.1189 12.0646 18.4289C11.3415 18.5864 10.5721 18.7818 9.83644 19.015ZM16.4267 19.3204C16.4267 19.5839 16.4267 19.6933 15.8824 19.6968C15.7226 19.6624 15.353 19.4447 14.897 19.1342C15.0625 19.1159 15.1846 19.1067 15.2533 19.1067C16.1202 19.1067 16.366 19.1915 16.4267 19.3204Z" />
</svg>
