<svg viewBox="0 0 35 36" fill="none" xmlns="http://www.w3.org/2000/svg">
<path d="M14.6973 34.1328C14.6973 34.888 14.0852 35.5 13.3301 35.5H7.31445C4.2989 35.5 1.8457 33.0468 1.8457 30.0312V5.96875C1.8457 2.95319 4.2989 0.5 7.31445 0.5H24.1234C27.1387 0.5 29.5921 2.95319 29.5921 5.96875V19.0254C29.5921 19.7805 28.9798 20.3926 28.2249 20.3926C27.4698 20.3926 26.8578 19.7805 26.8578 19.0254V5.96875C26.8578 4.46111 25.631 3.23437 24.1234 3.23437H7.31445C5.80681 3.23437 4.58008 4.46111 4.58008 5.96875V30.0312C4.58008 31.5389 5.80681 32.7656 7.31445 32.7656H13.3301C14.0852 32.7656 14.6973 33.3777 14.6973 34.1328ZM22.7562 8.70312H8.67416C7.91901 8.70312 7.30698 9.31515 7.30698 10.0703C7.30698 10.8255 7.91901 11.4375 8.67416 11.4375H22.7562C23.5111 11.4375 24.1234 10.8255 24.1234 10.0703C24.1234 9.31515 23.5111 8.70312 22.7562 8.70312ZM24.1234 15.5391C24.1234 14.7839 23.5111 14.1719 22.7562 14.1719H8.67416C7.91901 14.1719 7.30698 14.7839 7.30698 15.5391C7.30698 16.2942 7.91901 16.9062 8.67416 16.9062H22.7562C23.5111 16.9062 24.1234 16.2942 24.1234 15.5391ZM8.67416 19.6406C7.91901 19.6406 7.30698 20.2527 7.30698 21.0078C7.30698 21.763 7.91901 22.375 8.67416 22.375H15.8594C16.6145 22.375 17.2266 21.763 17.2266 21.0078C17.2266 20.2527 16.6145 19.6406 15.8594 19.6406H8.67416Z" />
<path d="M29.7457 24.4175L29.866 24.5465C30.3873 25.1056 30.3873 26.0086 29.866 26.5677L22.4066 34.5807C21.8853 35.1398 21.0431 35.1398 20.5217 34.5807L16.391 30.1513C16.2671 30.0187 16.1687 29.8612 16.1016 29.6878C16.0345 29.5144 16 29.3285 16 29.1407C16 28.953 16.0345 28.7671 16.1016 28.5937C16.1687 28.4203 16.2671 28.2628 16.391 28.1302L16.5113 28.0012C17.0327 27.4421 17.8748 27.4421 18.3962 28.0012L21.4709 31.2981L27.8608 24.4318C28.3688 23.8585 29.2243 23.8585 29.7457 24.4175Z"/>
</svg>
