<svg viewBox="0 0 98 88" fill="none" xmlns="http://www.w3.org/2000/svg">
<path d="M50.0607 0.191068L46.8801 1.01133L7.6943 11.1171L4.51369 11.9374C2.96986 12.3374 1.64773 13.3335 0.837356 14.7071C0.0269852 16.0808 -0.205444 17.7198 0.191061 19.2646L13.9829 72.7493C14.3829 74.2932 15.3789 75.6154 16.7525 76.4259C18.126 77.2363 19.765 77.4687 21.3097 77.0722L21.3179 77.0701L66.8485 65.328L66.8567 65.3259C68.4006 64.9259 69.7227 63.9298 70.5331 62.5561C71.3434 61.1825 71.5759 59.5435 71.1794 57.9986L57.3875 4.51397C56.9875 2.97005 55.9915 1.64784 54.6179 0.837414C53.2444 0.0269912 51.6054 -0.205456 50.0607 0.191068Z" fill="#F2F2F2"/>
<path d="M50.4934 1.86806L46.7262 2.83961L8.71349 12.6429L4.94633 13.6144C3.84693 13.8992 2.9054 14.6086 2.32831 15.5868C1.75123 16.565 1.58571 17.7322 1.86807 18.8323L15.6599 72.317C15.9447 73.4164 16.654 74.358 17.6322 74.9351C18.6103 75.5122 19.7775 75.6778 20.8775 75.3954L20.8857 75.3933L66.4163 63.6512L66.4246 63.649C67.5239 63.3642 68.4655 62.6548 69.0425 61.6766C69.6196 60.6984 69.7851 59.5313 69.5028 58.4312L55.7109 4.9465C55.4261 3.84705 54.7168 2.90548 53.7387 2.32836C52.7605 1.75124 51.5934 1.5857 50.4934 1.86806Z" fill="white"/>
<path d="M47.6489 19.1884L24.6161 25.1284C24.3588 25.1948 24.0858 25.1562 23.857 25.0212C23.6281 24.8862 23.4623 24.6658 23.396 24.4085C23.3297 24.1513 23.3682 23.8782 23.5032 23.6494C23.6382 23.4205 23.8586 23.2547 24.1158 23.1884L47.1486 17.2483C47.4058 17.1822 47.6787 17.221 47.9073 17.356C48.1359 17.491 48.3016 17.7113 48.3679 17.9684C48.4342 18.2255 48.3957 18.4985 48.2609 18.7272C48.1261 18.956 47.906 19.1218 47.6489 19.1884Z" fill="#F2F2F2"/>
<path d="M52.4938 21.4298L25.4599 28.4017C25.2026 28.4681 24.9295 28.4295 24.7007 28.2945C24.4719 28.1595 24.3061 27.9391 24.2397 27.6818C24.1734 27.4246 24.212 27.1515 24.347 26.9227C24.482 26.6938 24.7023 26.528 24.9596 26.4617L51.9935 19.4897C52.2508 19.4234 52.5239 19.462 52.7527 19.597C52.9815 19.732 53.1473 19.9524 53.2137 20.2096C53.28 20.4669 53.2414 20.74 53.1064 20.9688C52.9714 21.1976 52.7511 21.3635 52.4938 21.4298Z" fill="#F2F2F2"/>
<path d="M51.4321 33.8595L28.3993 39.7995C28.2719 39.8324 28.1393 39.8398 28.0091 39.8214C27.8788 39.803 27.7535 39.7592 27.6402 39.6923C27.5269 39.6255 27.4278 39.5369 27.3488 39.4318C27.2697 39.3267 27.212 39.207 27.1792 39.0797C27.1463 38.9523 27.1389 38.8197 27.1573 38.6894C27.1757 38.5591 27.2196 38.4338 27.2864 38.3205C27.3533 38.2072 27.4418 38.1081 27.5469 38.029C27.652 37.9499 27.7717 37.8923 27.899 37.8595L50.9318 31.9194C51.0592 31.8866 51.1918 31.8791 51.3221 31.8975C51.4523 31.9159 51.5777 31.9598 51.691 32.0267C51.8043 32.0935 51.9033 32.182 51.9824 32.2871C52.0615 32.3923 52.1191 32.5119 52.152 32.6393C52.1848 32.7667 52.1922 32.8993 52.1738 33.0296C52.1554 33.1598 52.1116 33.2852 52.0447 33.3985C51.9779 33.5118 51.8894 33.6108 51.7843 33.6899C51.6792 33.769 51.5595 33.8266 51.4321 33.8595Z" fill="#F2F2F2"/>
<path d="M56.277 36.1017L29.2431 43.0736C29.1157 43.1064 28.9831 43.1139 28.8528 43.0955C28.7226 43.0771 28.5972 43.0332 28.4839 42.9664C28.3706 42.8995 28.2716 42.811 28.1925 42.7059C28.1134 42.6008 28.0558 42.4811 28.0229 42.3537C27.9901 42.2263 27.9827 42.0937 28.0011 41.9635C28.0195 41.8332 28.0633 41.7078 28.1302 41.5945C28.197 41.4812 28.2855 41.3822 28.3906 41.3031C28.4957 41.224 28.6154 41.1664 28.7428 41.1335L55.7767 34.1616C56.034 34.0953 56.3071 34.1338 56.5359 34.2689C56.7647 34.4039 56.9305 34.6242 56.9969 34.8815C57.0632 35.1388 57.0246 35.4119 56.8896 35.6407C56.7546 35.8695 56.5343 36.0353 56.277 36.1017Z" fill="#F2F2F2"/>
<path d="M55.2156 48.5314L32.1828 54.4714C31.9256 54.5375 31.6527 54.4989 31.4241 54.3638C31.1954 54.2288 31.0297 54.0085 30.9634 53.7514C30.8971 53.4942 30.9356 53.2212 31.0704 52.9925C31.2053 52.7637 31.4255 52.5978 31.6825 52.5314L54.7154 46.5913C54.9726 46.525 55.2457 46.5635 55.4745 46.6985C55.7033 46.8335 55.8691 47.0539 55.9355 47.3112C56.0018 47.5685 55.9632 47.8415 55.8282 48.0704C55.6933 48.2992 55.4729 48.465 55.2156 48.5314Z" fill="#F2F2F2"/>
<path d="M60.0611 50.7736L33.0271 57.7455C32.8997 57.7784 32.767 57.786 32.6367 57.7677C32.5063 57.7494 32.3809 57.7055 32.2675 57.6387C32.1541 57.5718 32.055 57.4833 31.9758 57.3782C31.8967 57.273 31.839 57.1533 31.8062 57.0258C31.7733 56.8983 31.7659 56.7657 31.7843 56.6353C31.8027 56.505 31.8467 56.3796 31.9136 56.2662C31.9805 56.1529 32.0691 56.0539 32.1744 55.9748C32.2796 55.8957 32.3994 55.8382 32.5268 55.8054L59.5608 48.8335C59.8181 48.7672 60.0911 48.8057 60.3199 48.9407C60.5488 49.0757 60.7146 49.2961 60.7809 49.5534C60.8473 49.8106 60.8087 50.0837 60.6737 50.3126C60.5387 50.5414 60.3183 50.7072 60.0611 50.7736Z" fill="#F2F2F2"/>
<path d="M20.6838 31.219L12.5327 33.3211C12.4094 33.3528 12.2785 33.3342 12.1688 33.2695C12.0592 33.2048 11.9796 33.0992 11.9477 32.9759L10.0766 25.7199C10.045 25.5965 10.0635 25.4657 10.1282 25.356C10.1929 25.2463 10.2985 25.1667 10.4218 25.1348L18.5729 23.0327C18.6962 23.001 18.8271 23.0196 18.9368 23.0843C19.0465 23.149 19.126 23.2546 19.1579 23.3779L21.029 30.6339C21.0607 30.7572 21.0421 30.8881 20.9774 30.9978C20.9127 31.1075 20.8071 31.187 20.6838 31.219Z" fill="#E6E6E6"/>
<path d="M24.467 45.8898L16.3159 47.992C16.1926 48.0236 16.0617 48.0051 15.9521 47.9404C15.8424 47.8757 15.7628 47.7701 15.7309 47.6468L13.8598 40.3908C13.8282 40.2674 13.8467 40.1365 13.9114 40.0269C13.9761 39.9172 14.0817 39.8376 14.205 39.8057L22.3561 37.7036C22.4794 37.6719 22.6103 37.6905 22.72 37.7552C22.8297 37.8199 22.9092 37.9255 22.9411 38.0488L24.8122 45.3048C24.8439 45.4281 24.8253 45.559 24.7606 45.6687C24.6959 45.7784 24.5903 45.8579 24.467 45.8898Z" fill="#E6E6E6"/>
<path d="M28.2503 60.5617L20.0992 62.6639C19.9758 62.6955 19.8449 62.677 19.7353 62.6123C19.6256 62.5475 19.546 62.442 19.5141 62.3187L17.643 55.0627C17.6114 54.9393 17.6299 54.8084 17.6946 54.6987C17.7593 54.5891 17.8649 54.5095 17.9882 54.4776L26.1393 52.3755C26.2626 52.3438 26.3935 52.3623 26.5032 52.4271C26.6129 52.4918 26.6924 52.5974 26.7243 52.7206L28.5954 59.9767C28.6271 60.1 28.6085 60.2309 28.5438 60.3406C28.4791 60.4503 28.3735 60.5298 28.2503 60.5617Z" fill="#E6E6E6"/>
<path d="M81.8278 13.749H34.7907C33.1959 13.7508 31.6669 14.3852 30.5392 15.5129C29.4115 16.6407 28.7772 18.1698 28.7754 19.7647V74.9991C28.7772 76.594 29.4115 78.1231 30.5392 79.2508C31.6669 80.3786 33.1959 81.013 34.7907 81.0148H81.8278C83.4226 81.013 84.9516 80.3786 86.0792 79.2508C87.2069 78.1231 87.8413 76.594 87.8431 74.9991V19.7647C87.8413 18.1698 87.2069 16.6407 86.0792 15.5129C84.9516 14.3852 83.4226 13.7508 81.8278 13.749Z" fill="#E6E6E6"/>
<path d="M81.8277 15.4805H34.7905C33.6548 15.4817 32.566 15.9335 31.7629 16.7366C30.9598 17.5397 30.5081 18.6286 30.5068 19.7643V74.9988C30.5081 76.1346 30.9598 77.2234 31.7629 78.0266C32.566 78.8297 33.6548 79.2814 34.7905 79.2827H81.8277C82.9633 79.2814 84.0521 78.8296 84.8552 78.0265C85.6582 77.2234 86.11 76.1346 86.1112 74.9988V19.7643C86.11 18.6286 85.6582 17.5397 84.8552 16.7366C84.0521 15.9335 82.9633 15.4818 81.8277 15.4805Z" fill="white"/>
<path d="M74.7482 45.8316H50.9618C50.8302 45.8318 50.6998 45.806 50.5781 45.7557C50.4565 45.7054 50.3459 45.6317 50.2528 45.5386C50.1596 45.4456 50.0858 45.3351 50.0353 45.2135C49.9849 45.0919 49.959 44.9615 49.959 44.8299C49.959 44.6982 49.9849 44.5679 50.0353 44.4463C50.0858 44.3247 50.1596 44.2142 50.2528 44.1211C50.3459 44.0281 50.4565 43.9543 50.5781 43.9041C50.6998 43.8538 50.8302 43.828 50.9618 43.8281H74.7482C75.0136 43.8284 75.2681 43.9341 75.4558 44.1219C75.6434 44.3098 75.7488 44.5644 75.7488 44.8299C75.7488 45.0954 75.6434 45.35 75.4558 45.5378C75.2681 45.7257 75.0136 45.8314 74.7482 45.8316Z" fill="#E6E6E6"/>
<path d="M78.8802 49.2125H50.9618C50.8302 49.2127 50.6998 49.1869 50.5781 49.1366C50.4565 49.0863 50.3459 49.0125 50.2528 48.9195C50.1596 48.8265 50.0858 48.716 50.0353 48.5944C49.9849 48.4727 49.959 48.3424 49.959 48.2107C49.959 48.0791 49.9849 47.9487 50.0353 47.8271C50.0858 47.7055 50.1596 47.595 50.2528 47.502C50.3459 47.409 50.4565 47.3352 50.5781 47.2849C50.6998 47.2346 50.8302 47.2088 50.9618 47.209H78.8802C79.1459 47.209 79.4007 47.3145 79.5885 47.5024C79.7764 47.6903 79.8819 47.9451 79.8819 48.2107C79.8819 48.4764 79.7764 48.7312 79.5885 48.9191C79.4007 49.107 79.1459 49.2125 78.8802 49.2125Z" fill="#E6E6E6"/>
<path d="M74.7482 60.984H50.9618C50.8302 60.9842 50.6998 60.9583 50.5781 60.9081C50.4565 60.8578 50.3459 60.784 50.2528 60.691C50.1596 60.598 50.0858 60.4875 50.0353 60.3659C49.9849 60.2442 49.959 60.1139 49.959 59.9822C49.959 59.8506 49.9849 59.7202 50.0353 59.5986C50.0858 59.477 50.1596 59.3665 50.2528 59.2735C50.3459 59.1804 50.4565 59.1067 50.5781 59.0564C50.6998 59.0061 50.8302 58.9803 50.9618 58.9805H74.7482C75.0138 58.9805 75.2686 59.086 75.4565 59.2739C75.6443 59.4617 75.7499 59.7165 75.7499 59.9822C75.7499 60.2479 75.6443 60.5027 75.4565 60.6906C75.2686 60.8785 75.0138 60.984 74.7482 60.984Z" fill="#E6E6E6"/>
<path d="M78.8802 64.3649H50.9618C50.8302 64.365 50.6998 64.3392 50.5781 64.2889C50.4565 64.2387 50.3459 64.1649 50.2528 64.0718C50.1596 63.9788 50.0858 63.8683 50.0353 63.7467C49.9849 63.6251 49.959 63.4947 49.959 63.3631C49.959 63.2315 49.9849 63.1011 50.0353 62.9795C50.0858 62.8579 50.1596 62.7474 50.2528 62.6543C50.3459 62.5613 50.4565 62.4875 50.5781 62.4373C50.6998 62.387 50.8302 62.3612 50.9618 62.3613H78.8802C79.0118 62.3612 79.1422 62.387 79.2639 62.4373C79.3855 62.4875 79.4961 62.5613 79.5892 62.6543C79.6824 62.7474 79.7563 62.8579 79.8067 62.9795C79.8571 63.1011 79.883 63.2315 79.883 63.3631C79.883 63.4947 79.8571 63.6251 79.8067 63.7467C79.7563 63.8683 79.6824 63.9788 79.5892 64.0718C79.4961 64.1649 79.3855 64.2387 79.2639 64.2889C79.1422 64.3392 79.0118 64.365 78.8802 64.3649Z" fill="#E6E6E6"/>
<path d="M45.6344 50.748H37.2166C37.0893 50.7479 36.9672 50.6972 36.8772 50.6072C36.7871 50.5171 36.7365 50.395 36.7363 50.2677V42.7743C36.7365 42.6469 36.7871 42.5248 36.8772 42.4348C36.9672 42.3447 37.0893 42.2941 37.2166 42.2939H45.6344C45.7618 42.2941 45.8839 42.3447 45.9739 42.4348C46.0639 42.5248 46.1146 42.6469 46.1147 42.7743V50.2677C46.1146 50.395 46.0639 50.5171 45.9739 50.6072C45.8839 50.6972 45.7618 50.7479 45.6344 50.748Z" fill="#E6E6E6"/>
<path d="M45.6344 65.8994H37.2166C37.0893 65.8993 36.9672 65.8486 36.8772 65.7586C36.7871 65.6685 36.7365 65.5464 36.7363 65.4191V57.9257C36.7365 57.7983 36.7871 57.6762 36.8772 57.5862C36.9672 57.4961 37.0893 57.4455 37.2166 57.4453H45.6344C45.7618 57.4455 45.8839 57.4961 45.9739 57.5862C46.0639 57.6762 46.1146 57.7983 46.1147 57.9257V65.4191C46.1146 65.5464 46.0639 65.6685 45.9739 65.7586C45.8839 65.8486 45.7618 65.8993 45.6344 65.8994Z" fill="#E6E6E6"/>
<path d="M74.7748 28.9654H57.238C56.9724 28.9654 56.7176 28.8599 56.5297 28.672C56.3419 28.4842 56.2363 28.2294 56.2363 27.9637C56.2363 27.698 56.3419 27.4432 56.5297 27.2553C56.7176 27.0675 56.9724 26.9619 57.238 26.9619H74.7748C75.0404 26.9619 75.2952 27.0675 75.4831 27.2553C75.6709 27.4432 75.7765 27.698 75.7765 27.9637C75.7765 28.2294 75.6709 28.4842 75.4831 28.672C75.2952 28.8599 75.0404 28.9654 74.7748 28.9654Z" fill="#CCCCCC"/>
<path d="M78.9068 32.3463H57.238C57.1065 32.3463 56.9762 32.3204 56.8547 32.27C56.7332 32.2197 56.6227 32.1459 56.5297 32.0529C56.4367 31.9599 56.3629 31.8494 56.3126 31.7279C56.2622 31.6064 56.2363 31.4761 56.2363 31.3445C56.2363 31.213 56.2622 31.0827 56.3126 30.9612C56.3629 30.8396 56.4367 30.7292 56.5297 30.6362C56.6227 30.5432 56.7332 30.4694 56.8547 30.419C56.9762 30.3687 57.1065 30.3428 57.238 30.3428H78.9068C79.1725 30.3428 79.4273 30.4483 79.6151 30.6362C79.803 30.824 79.9085 31.0789 79.9085 31.3445C79.9085 31.6102 79.803 31.865 79.6151 32.0529C79.4273 32.2408 79.1725 32.3463 78.9068 32.3463Z" fill="#CCCCCC"/>
<path d="M53.3576 36.4434H37.1903C37.0629 36.4432 36.9408 36.3926 36.8508 36.3025C36.7608 36.2125 36.7101 36.0904 36.71 35.963V23.3446C36.7101 23.2172 36.7608 23.0952 36.8508 23.0051C36.9408 22.915 37.0629 22.8644 37.1903 22.8643H53.3576C53.485 22.8644 53.607 22.915 53.6971 23.0051C53.7871 23.0952 53.8378 23.2172 53.8379 23.3446V35.963C53.8378 36.0904 53.7871 36.2125 53.6971 36.3025C53.607 36.3926 53.485 36.4432 53.3576 36.4434Z" fill="#E6E6E6"/>
</svg>
